<svg width="14" height="6" viewBox="0 0 14 6" fill="none" xmlns="http://www.w3.org/2000/svg">
<path d="M3.3535 0.3535C3.15827 0.158267 2.84173 0.158267 2.6465 0.3535L0.353553 2.64645C0.158291 2.84171 0.158291 3.15829 0.353553 3.35355L2.6465 5.6465C2.84173 5.84173 3.15827 5.84173 3.3535 5.6465V5.6465C3.54873 5.45127 3.54873 5.13473 3.3535 4.9395L1.914 3.5L13.5 3.5C13.7761 3.5 14 3.27614 14 3V3C14 2.72386 13.7761 2.5 13.5 2.5L1.914 2.5L3.3535 1.0605C3.54873 0.865267 3.54873 0.548733 3.3535 0.3535V0.3535Z" fill="#2E3A59"/>
</svg>
