<svg width="1000" height="1000" fill="none" xmlns="http://www.w3.org/2000/svg"><circle cx="500.592" cy="499.257" r="467.219" fill="#252525"/><g filter="url(#a)"><path d="M996.921 554.967c-27.861 250.09-239.966 444.549-497.49 444.549-257.631 0-469.807-194.64-497.527-444.88C.63 543.125 9.83 533.301 21.41 533.305l956.019.319c11.581.004 20.774 9.833 19.492 21.343Z" fill="#F8F8F8"/></g><path d="M499.431 989.516c252.372 0 460.249-190.573 487.551-435.656.591-5.308-3.651-10.234-9.556-10.236l-956.019-.319c-5.905-.002-10.151 4.921-9.563 10.23 27.164 245.231 235.11 435.981 487.587 435.981Z" stroke="#252525" stroke-width="20"/><g filter="url(#b)"><path d="M998.082 444.549C970.222 194.459 758.116 0 500.592 0 242.962 0 30.785 194.64 3.066 444.88c-1.275 11.511 7.925 21.335 19.506 21.331l956.019-.319c11.581-.004 20.774-9.833 19.491-21.343Z" fill="#FF4C41"/></g><path d="M500.592 10c252.373 0 460.249 190.572 487.552 435.656.591 5.308-3.652 10.234-9.557 10.236l-956.018.319c-5.905.002-10.152-4.921-9.564-10.23C40.17 200.75 248.115 10 500.592 10Z" stroke="#252525" stroke-width="20"/><circle cx="500.592" cy="499.257" r="183.55" fill="#252525"/><circle cx="500.592" cy="499.257" r="116.805" fill="#F8F8F8"/><g filter="url(#c)"><circle cx="500.592" cy="499.257" r="83.432" fill="#F8F8F8"/><circle cx="500.592" cy="499.257" r="73.432" stroke="#252525" stroke-width="20"/></g><path d="M181.545 258.645s104.675-85.238 160.096-148.561c12.561-14.35 26.491-26.64 31.196-37.407 8.558-19.584-41.461-3.535-63.422 5.292-83.01 33.365-164.966 105.127-188.948 182.426-6.543 21.087-5.264 39.26 11.537 37.858 11.498-.96 49.541-39.608 49.541-39.608ZM78.828 331.817c-3.59 10.999-3.015 25.276 8.097 28.497 10.948 3.173 22.201-18.948 22.201-18.948s9.478-24.123-.758-28.69c-7.77-3.467-25.163 5.731-29.54 19.141ZM61.275 384.024c.245 4.717 1.449 8.538 5.652 10.692 7.139 3.659 13.536-7.674 13.255-15.691-.151-4.293-.826-7.611-4.315-10.118-6.663-4.788-15.019 6.923-14.592 15.117Z" fill="#fff" fill-opacity=".8"/><defs><filter id="a" x="1.786" y="533.305" width="995.254" height="466.211" filterUnits="userSpaceOnUse" color-interpolation-filters="sRGB"><feFlood flood-opacity="0" result="BackgroundImageFix"/><feBlend in="SourceGraphic" in2="BackgroundImageFix" result="shape"/><feColorMatrix in="SourceAlpha" values="0 0 0 0 0 0 0 0 0 0 0 0 0 0 0 0 0 0 127 0" result="hardAlpha"/><feOffset dx="-150" dy="-50"/><feComposite in2="hardAlpha" operator="arithmetic" k2="-1" k3="1"/><feColorMatrix values="0 0 0 0 0 0 0 0 0 0 0 0 0 0 0 0 0 0 0.25 0"/><feBlend in2="shape" result="effect1_innerShadow_1_71"/></filter><filter id="b" x="2.948" y="0" width="995.254" height="466.211" filterUnits="userSpaceOnUse" color-interpolation-filters="sRGB"><feFlood flood-opacity="0" result="BackgroundImageFix"/><feBlend in="SourceGraphic" in2="BackgroundImageFix" result="shape"/><feColorMatrix in="SourceAlpha" values="0 0 0 0 0 0 0 0 0 0 0 0 0 0 0 0 0 0 127 0" result="hardAlpha"/><feOffset dx="-150" dy="-25"/><feComposite in2="hardAlpha" operator="arithmetic" k2="-1" k3="1"/><feColorMatrix values="0 0 0 0 0 0 0 0 0 0 0 0 0 0 0 0 0 0 0.25 0"/><feBlend in2="shape" result="effect1_innerShadow_1_71"/></filter><filter id="c" x="417.16" y="415.825" width="176.864" height="176.864" filterUnits="userSpaceOnUse" color-interpolation-filters="sRGB"><feFlood flood-opacity="0" result="BackgroundImageFix"/><feColorMatrix in="SourceAlpha" values="0 0 0 0 0 0 0 0 0 0 0 0 0 0 0 0 0 0 127 0" result="hardAlpha"/><feOffset dx="10" dy="10"/><feColorMatrix values="0 0 0 0 0 0 0 0 0 0 0 0 0 0 0 0 0 0 0.25 0"/><feBlend in2="BackgroundImageFix" result="effect1_dropShadow_1_71"/><feBlend in="SourceGraphic" in2="effect1_dropShadow_1_71" result="shape"/></filter></defs></svg>